# xmcd CD database file
#
# Track frame offsets:
#	150
#	16140
#	35340
#	51595
#	67870
#	96670
#	117310
#	133735
#	150352
#	170737
#	185692
#	208727
#
# Disc length: 2883 seconds
#
# Revision: 10
# Processed by: cddbd v1.5.2PL0 Copyright (c) Steve Scherf et al.
# Submitted via: CDex 1.83
#
DISCID=ab0b410c
DTITLE=Sonny Landreth - South of I-10
DYEAR=1995
DGENRE=Blues
TTITLE0=Shootin' for the Moon
TTITLE1=Creole Angel
TTITLE2=Native Stepson
TTITLE3=Orphans of the Motherland
TTITLE4=Congo Square
TTITLE5=Turning Wheel
TTITLE6=South of I-10
TTITLE7=Cajun Waltz
TTITLE8=Mojo Boogie
TTITLE9=C'est Chaud
TTITLE10=Great Gulf Wind
TTITLE11=Great Gulf Wind Reprise (Slight Return)
EXTD=YEAR: 1995
EXTT0=
EXTT1=
EXTT2=
EXTT3=
EXTT4=
EXTT5=
EXTT6=
EXTT7=
EXTT8=
EXTT9=
EXTT10=
EXTT11=
PLAYORDER=
